<svg xmlns="http://www.w3.org/2000/svg" width="408.779" height="349.976" viewBox="0 0 408.779 349.976">
  <g id="Fine" transform="translate(-58.611 -88.878)">
    <g id="Group_23" data-name="Group 23">
      <g id="svg_10">
        <g id="svg_11">
          <path id="svg_4" d="M194.358,89.378c-19.03,0-36.615,5.012-50.632,14.442-16.906,11.3-25.147,25.486-25.147,43.326V293.778a70.119,70.119,0,0,1,8.5-.51,76.289,76.289,0,0,1,68.388,110.44h81.046a39.409,39.409,0,0,1-5.947-7.731l-.51-.764c-9.685-16.991-3.908-68.643-1.869-84.1l.595-4.5,4.5.849a45.392,45.392,0,0,0,9.769.934c17.671,0,35.681-8.325,44.856-13.338l2.039-1.1,1.019.595V147.827a68.784,68.784,0,0,1,.595-8.41,17.1,17.1,0,0,1,.34-2.039,60.383,60.383,0,0,1,1.445-6.8q.127-.637.255-1.274A67.039,67.039,0,0,1,365.37,89.379H194.357Zm-46.045,67.963h67.963v8.5H148.313Zm0,50.972h33.982v8.5H148.313Zm59.468,59.468H148.313v-8.5h59.468Zm76.459,0H233.267v-8.5H284.24Zm0-50.972H199.285v-8.5H284.24Zm0-50.972H233.267v-8.5H284.24Z" stroke="#000" stroke-width="1"/>
          <path id="svg_5" d="M408.451,89.378h-9.756c-32.663,0-59.236,26.212-59.236,58.435v35.014H466.89V147.813a58.5,58.5,0,0,0-58.439-58.435Z" stroke="#000" stroke-width="1"/>
          <path id="svg_6" d="M329.96,303.622c-12.03,6.305-29.327,13.3-46.882,13.3a60.509,60.509,0,0,1-7-.4c-4.339,35.732-3.833,65.35,1.361,74.434l.473.83c5.127,9,30.074,29.966,52.051,46.443,21.969-16.46,46.907-37.416,52.026-46.409l.481-.838c5.194-9.084,5.7-38.7,1.369-74.459a60.614,60.614,0,0,1-7,.4c-15.739,0-31.4-5.83-42.065-10.91,0,0-4.5-2.229-4.809-2.389Z" stroke="#000" stroke-width="1"/>
          <path id="svg_7" d="M127.074,301.763a70.084,70.084,0,0,0-8.5.595l-8.5,1.614a67.789,67.789,0,1,0,16.991-2.209Zm8.665,101.945h-8.665v12.743h-8.5V403.708H97.34v-8.5h38.4a8.5,8.5,0,0,0,0-16.991H109.913a16.992,16.992,0,0,1,0-33.982h8.665V331.5h8.5V344.24h21.238v8.5h-38.4a8.5,8.5,0,0,0,0,16.991h25.826a16.992,16.992,0,0,1,0,33.982Z" stroke="#000" stroke-width="1"/>
        </g>
      </g>
    </g>
  </g>
</svg>
