<svg id="Jeep_Safari1" data-name="Jeep Safari1" xmlns="http://www.w3.org/2000/svg" width="113.4" height="53.793" viewBox="0 0 113.4 53.793">
  <g id="Group_12" data-name="Group 12">
    <g id="Group_11" data-name="Group 11">
      <path id="Path_39" data-name="Path 39" d="M50.724,35.666,43.142,55.224,12.526,58.4a3.916,3.916,0,0,0-3.367,2.841L6.574,70.485l-5.277.35.36,3.946a2.385,2.385,0,0,0,1.183,1.849l4.533,2.617h4.4V77.179q-.008-.246-.008-.493t.008-.5v-.114h0a14.572,14.572,0,0,1,29.117,0h0v.116q.008.248.008.5t-.008.5v2.064H73.19V77.179q-.008-.246-.008-.493t.008-.5v-.114h0a14.569,14.569,0,0,1,29.1-.33H110.2V70.339h-4.27V57.109h-5.154V46.417H98.157a3.03,3.03,0,0,0-3.03,3.03v7.662H71.862V46.417H69.246a3.03,3.03,0,0,0-3.03,3.03v12.1H61.788A6.961,6.961,0,0,0,55.1,66.6l-1.639,5.727H45.732l-.057-16.136,7.574-19.544Z" transform="translate(-1.297 -35.666)" fill="#44a29c"/>
      <rect id="Rectangle_10" data-name="Rectangle 10" width="6.526" height="21.767" rx="2.102" transform="translate(106.874 11.154)" fill="#44a29c"/>
      <rect id="Rectangle_11" data-name="Rectangle 11" width="4.077" height="4.026" transform="translate(103.317 21.444)" fill="#44a29c"/>
      <circle id="Ellipse_3" data-name="Ellipse 3" cx="12.707" cy="12.707" r="12.707" transform="translate(12.314 28.38)" fill="#44a29c"/>
      <circle id="Ellipse_4" data-name="Ellipse 4" cx="12.707" cy="12.707" r="12.707" transform="translate(73.732 28.38)" fill="#44a29c"/>
    </g>
  </g>
</svg>
