<svg id="zoo" xmlns="http://www.w3.org/2000/svg" width="85.344" height="85.344" viewBox="0 0 85.344 85.344">
  <path id="Path_12" data-name="Path 12" d="M84.967,36.466H75.332V33.783h1.377a1.284,1.284,0,0,0,1.377-1.342V27.075a1.284,1.284,0,0,0-1.377-1.342H64.319v-6.44A4.294,4.294,0,0,0,59.915,15H27.429a4.294,4.294,0,0,0-4.4,4.293v6.44H10.636a1.284,1.284,0,0,0-1.377,1.342v5.367a1.284,1.284,0,0,0,1.377,1.342h1.377v2.683H2.377A1.284,1.284,0,0,0,1,37.808V66.653a1.284,1.284,0,0,0,1.377,1.342,1.284,1.284,0,0,0,1.377-1.342v-27.5h8.259V76.715H3.753V72.69a1.284,1.284,0,0,0-1.377-1.342A1.284,1.284,0,0,0,1,72.69v5.367A1.284,1.284,0,0,0,2.377,79.4H84.967a1.284,1.284,0,0,0,1.377-1.342V48.943a1.377,1.377,0,0,0-2.753,0V76.715H75.332V39.149h8.259v4.025a1.377,1.377,0,0,0,2.753,0V37.808A1.284,1.284,0,0,0,84.967,36.466Zm-72.955-8.05H23.024V31.1H12.012Zm8.259,48.3H14.765V33.783h5.506Zm22.024,0H39.542V51.224a1.377,1.377,0,0,0-2.753,0V76.715H34.036V72.69a1.377,1.377,0,0,0-2.753,0v4.025H28.53V53.907a14.153,14.153,0,0,1,2.753-8.452V67.726a1.377,1.377,0,0,0,2.753,0V42.5a18.965,18.965,0,0,1,2.753-1.744v5.1a1.377,1.377,0,0,0,2.753,0V39.686a16.611,16.611,0,0,1,2.753-.537Zm11.012,0H50.554V64.64a1.377,1.377,0,0,0-2.753,0V76.715H45.048V39.284a16.61,16.61,0,0,1,2.753.537V59.274a1.377,1.377,0,0,0,2.753,0V40.759A18.965,18.965,0,0,1,53.307,42.5Zm5.506,0H56.06V45.455a14.153,14.153,0,0,1,2.753,8.452Zm5.506,0H61.566V53.907A17.637,17.637,0,0,0,43.672,36.466,17.637,17.637,0,0,0,25.777,53.907V76.715H23.024V33.783H51.931a1.342,1.342,0,1,0,0-2.683H25.777V19.293a1.571,1.571,0,0,1,1.652-1.61H59.915a1.571,1.571,0,0,1,1.652,1.61V31.1h-4.13a1.342,1.342,0,1,0,0,2.683h6.883V76.715Zm8.259,0H67.072V33.783h5.506ZM64.319,31.1V28.416H75.332V31.1Z" transform="translate(-1 5.945)"/>
  <path id="Path_13" data-name="Path 13" d="M28.482,24.984H26.089l3.441-3.441a1.366,1.366,0,0,0,.3-1.646,1.308,1.308,0,0,0-1.346-.9H22.5a1.5,1.5,0,0,0,0,2.992h2.394l-3.441,3.441a1.366,1.366,0,0,0-.3,1.646,1.438,1.438,0,0,0,1.346.9h5.984a1.5,1.5,0,0,0,0-2.992Z" transform="translate(6.272 5.547)"/>
  <path id="Path_14" data-name="Path 14" d="M33.488,19a4.488,4.488,0,1,0,4.488,4.488A4.408,4.408,0,0,0,33.488,19Zm0,5.984a1.5,1.5,0,1,1,1.5-1.5A1.413,1.413,0,0,1,33.488,24.984Z" transform="translate(9.184 5.547)"/>
  <path id="Path_15" data-name="Path 15" d="M45.977,23.488a4.488,4.488,0,1,0-4.488,4.488A4.408,4.408,0,0,0,45.977,23.488Zm-4.488,1.5a1.5,1.5,0,1,1,1.5-1.5A1.413,1.413,0,0,1,41.488,24.984Z" transform="translate(12.093 5.547)"/>
  <path id="Path_16" data-name="Path 16" d="M12.5,3.992c5.536,0,10.473,6.134,12.567,15.26a1.552,1.552,0,0,0,1.8,1.2,1.641,1.641,0,0,0,1.2-1.8C25.662,7.882,19.528,1,12.5,1A1.413,1.413,0,0,0,11,2.5,1.413,1.413,0,0,0,12.5,3.992Z" transform="translate(2.495 -1)"/>
  <path id="Path_17" data-name="Path 17" d="M5.937,43.38a1.485,1.485,0,0,0,.748-1.945A36.455,36.455,0,0,1,3.992,27.222c0-9.725,3.291-18.4,8.378-22.142a1.609,1.609,0,0,0,.3-2.095,1.609,1.609,0,0,0-2.095-.3C4.74,7.025,1,16.6,1,27.222a42.175,42.175,0,0,0,2.843,15.41A1.688,1.688,0,0,0,5.937,43.38Z" transform="translate(-1 -0.293)"/>
  <path id="Path_18" data-name="Path 18" d="M22.538,9.543a1.481,1.481,0,0,0-2.095-2.095l-5.236,5.236-5.087-2.543a1.589,1.589,0,0,0-1.945.748,1.576,1.576,0,0,0,.6,1.945l5.087,2.543v5.236L7.278,16.126A1.515,1.515,0,0,0,5.633,18.67l8.378,5.536V27.5a1.413,1.413,0,0,0,1.5,1.5A1.419,1.419,0,0,0,17,27.048L19.546,24.5a1.593,1.593,0,0,0,0-2.095C18.5,21.063,17,22.859,17,22.859v-7.78Z" transform="translate(0.95 1.977)"/>
  <path id="Path_19" data-name="Path 19" d="M42.773,20.449a1.515,1.515,0,0,0,1.8-1.2c2.095-9.126,7.032-15.26,12.567-15.26C64.467,3.992,70.6,14.914,70.6,27.93a36.455,36.455,0,0,1-2.693,14.213,1.485,1.485,0,0,0,.748,1.945,1.743,1.743,0,0,0,1.945-.748,39.28,39.28,0,0,0,2.843-15.41C73.593,12.819,66.412,1,57.136,1,50.1,1,44.12,7.882,41.726,18.654A1.42,1.42,0,0,0,42.773,20.449Z" transform="translate(11.751 -1)"/>
  <path id="Path_20" data-name="Path 20" d="M54.48,29.043a1.413,1.413,0,0,0,1.5-1.5V24.255l8.378-5.536a1.515,1.515,0,0,0-1.646-2.543l-6.583,4.488V15.429l5.087-2.543a1.32,1.32,0,0,0,.6-1.945,1.32,1.32,0,0,0-1.945-.6L54.78,12.885,49.543,7.649a1.481,1.481,0,0,0-2.095,2.095l5.536,5.536v7.78a1.587,1.587,0,0,0-2.543-.449,1.446,1.446,0,0,0,0,2.095l2.543,2.543C52.984,26.948,52.685,29.043,54.48,29.043Z" transform="translate(14.406 2.076)"/>
  <path id="Path_21" data-name="Path 21" d="M23.488,31H20.5A1.413,1.413,0,0,0,19,32.5v2.992a1.5,1.5,0,0,0,2.992,0v-1.5h1.5a1.5,1.5,0,0,0,0-2.992Z" transform="translate(5.629 10.048)"/>
  <path id="Path_22" data-name="Path 22" d="M6.5,40.984a1.413,1.413,0,0,0,1.5-1.5V36.5A1.413,1.413,0,0,0,6.5,35,1.413,1.413,0,0,0,5,36.5v2.992A1.413,1.413,0,0,0,6.5,40.984Z" transform="translate(0.984 11.521)"/>
  <path id="Path_23" data-name="Path 23" d="M5,66.434a1.413,1.413,0,0,0,1.5,1.5,1.413,1.413,0,0,0,1.5-1.5V42.5A1.413,1.413,0,0,0,6.5,41,1.413,1.413,0,0,0,5,42.5Z" transform="translate(0.984 11.43)"/>
  <path id="Path_24" data-name="Path 24" d="M59.992,36.5A1.5,1.5,0,0,0,57,36.5V54.449a1.5,1.5,0,1,0,2.992,0Z" transform="translate(19.367 10.616)"/>
  <path id="Path_25" data-name="Path 25" d="M58.5,51A1.413,1.413,0,0,0,57,52.5v8.977a1.5,1.5,0,0,0,2.992,0V52.5A1.413,1.413,0,0,0,58.5,51Z" transform="translate(19.367 16.391)"/>
</svg>
