<svg xmlns="http://www.w3.org/2000/svg" width="464.2" height="342.075" viewBox="0 0 464.2 342.075">
  <g id="Parking_Fee" data-name="Parking Fee" transform="translate(-25.001 -84.673)">
    <g id="Group_21" data-name="Group 21">
      <g id="svg_8">
        <path id="svg_1" d="M421.555,125.557H407.931v25.3h13.624a12.65,12.65,0,0,0,0-25.3Z" stroke="#000" stroke-width="1"/>
        <path id="svg_2" d="M468.265,85.173H368.521a19.519,19.519,0,0,0-19.462,19.462v100.23a19.519,19.519,0,0,0,19.462,19.462h37.951v195.6a6.441,6.441,0,0,0,6.325,6.325h12.164a6.441,6.441,0,0,0,6.325-6.325V223.841h37.951A19.519,19.519,0,0,0,488.7,204.379V104.635c-.973-10.7-9.731-19.462-20.435-19.462Zm-46.709,81.255H407.932v32.6H392.849V109.988h28.707a28.22,28.22,0,1,1,0,56.44Z" stroke="#000" stroke-width="1"/>
        <path id="svg_3" d="M351.492,251.575H330.084l-10.7-45.736a55.185,55.185,0,0,0-54.008-42.817H125.731a55.185,55.185,0,0,0-54.008,42.817l-10.7,45.736H39.611a14.12,14.12,0,0,0-14.11,14.11v18.489a14.194,14.194,0,0,0,12.164,14.11l11.677,1.46a46.106,46.106,0,0,0-1.946,14.6v100.23c-.487,6.325,4.866,11.191,10.7,11.191H96.538a10.517,10.517,0,0,0,10.7-8.758l7.785-35.518h161.05L283.861,417a10.975,10.975,0,0,0,10.7,8.758H333a11.318,11.318,0,0,0,11.191-11.191V314.341a75.115,75.115,0,0,0-1.946-14.6l11.677-1.46a14.194,14.194,0,0,0,12.164-14.11V265.685c0-7.785-6.812-14.11-14.6-14.11ZM103.836,213.137a22.814,22.814,0,0,1,21.9-17.516H265.372a22.4,22.4,0,0,1,21.895,17.516l9.245,38.924A10.627,10.627,0,0,1,286.294,265.2h-181a10.4,10.4,0,0,1-10.218-13.137l8.758-38.924ZM140.814,341.1l-48.656-1.946c-3.892,0-7.3-3.406-7.785-7.3A127.268,127.268,0,0,1,84.86,308.5a7.439,7.439,0,0,1,9.731-6.325c15.083,3.892,36,9.731,44.763,12.164,2.919.487,4.866,2.919,5.839,5.839l2.919,11.677c1.946,4.379-1.946,9.731-7.3,9.245Zm165.915-9.245a7.593,7.593,0,0,1-7.785,7.3L250.289,341.1c-5.352,0-9.245-4.866-7.785-9.731l2.919-11.677c.487-2.919,2.919-4.866,5.839-5.839,9.245-2.433,30.166-7.785,44.763-12.164,4.379-1.46,9.245,1.946,9.731,6.325a100.8,100.8,0,0,1,.973,23.841Z" stroke="#000" stroke-width="1"/>
      </g>
    </g>
  </g>
</svg>
