<svg xmlns="http://www.w3.org/2000/svg" width="41.167" height="36.906" viewBox="0 0 41.167 36.906">
  <g id="Photography" transform="translate(-9.375 -15.719)">
    <g id="Group_25" data-name="Group 25">
      <g id="Group_24" data-name="Group 24">
        <path id="Path_51" data-name="Path 51" d="M28,32.375A8.625,8.625,0,1,0,36.625,41,8.635,8.635,0,0,0,28,32.375Zm0,15A6.375,6.375,0,1,1,34.375,41,6.382,6.382,0,0,1,28,47.375Z"/>
      </g>
    </g>
    <g id="Group_27" data-name="Group 27">
      <g id="Group_26" data-name="Group 26">
        <path id="Path_52" data-name="Path 52" d="M16.668,25.913c-.042-.314-.215-.538-.4-.538H12.142c-.185,0-.358.224-.4.509l-.579,2.741h6.075Z"/>
      </g>
    </g>
    <g id="Group_29" data-name="Group 29">
      <g id="Group_28" data-name="Group 28">
        <path id="Path_53" data-name="Path 53" d="M45,29.375H11A1.627,1.627,0,0,0,9.375,31V51A1.627,1.627,0,0,0,11,52.625H45A1.627,1.627,0,0,0,46.625,51V31A1.627,1.627,0,0,0,45,29.375Zm-17,21A9.375,9.375,0,1,1,37.375,41,9.386,9.386,0,0,1,28,50.375Zm16-1H39a.375.375,0,0,1,0-.75h5a.375.375,0,0,1,0,.75Zm0-3H40a.375.375,0,0,1,0-.75h4a.375.375,0,0,1,0,.75Zm0-3H41a.375.375,0,0,1,0-.75h3a.375.375,0,0,1,0,.75Z"/>
      </g>
    </g>
    <g id="Group_31" data-name="Group 31">
      <g id="Group_30" data-name="Group 30">
        <path id="Path_54" data-name="Path 54" d="M39.867,26.65a.37.37,0,0,1-.187.05.374.374,0,0,1-.324-.187l-2.393-4.135-2.7,1.57a3.36,3.36,0,0,1,.144.633l.622,4.043H45A2.378,2.378,0,0,1,47.375,31v1.338l3.167-11.855Z"/>
      </g>
    </g>
    <g id="Group_33" data-name="Group 33">
      <g id="Group_32" data-name="Group 32">
        <path id="Path_55" data-name="Path 55" d="M21.749,24.674l-.606,3.951H34.268l-.605-3.94A2.621,2.621,0,0,0,33.469,24c0-.006-.009-.009-.013-.014a.356.356,0,0,1-.028-.081,2.62,2.62,0,0,0-2.372-1.527h-6.7A2.629,2.629,0,0,0,21.749,24.674Z"/>
      </g>
    </g>
    <g id="Group_35" data-name="Group 35">
      <g id="Group_34" data-name="Group 34">
        <path id="Path_56" data-name="Path 56" d="M33.94,23.268l2.971-1.727a.375.375,0,0,1,.513.136l2.393,4.136L50.174,19.83,34.835,15.719,33.059,22.3A3.376,3.376,0,0,1,33.94,23.268Z"/>
      </g>
    </g>
  </g>
</svg>
