<svg width="512" height="512" xmlns="http://www.w3.org/2000/svg">
 <!-- Created with UXWing SVG Editor - https://uxwing.com/svg-icon-editor/ -->

 <g>
  <title>background</title>
  <rect fill="none" id="canvas_background" height="514" width="514" y="-1" x="-1"/>
  <g display="none" overflow="visible" y="0" x="0" height="100%" width="100%" id="canvasGrid">
   <rect fill="url(#gridpattern)" stroke-width="0" y="0" x="0" height="100%" width="100%"/>
  </g>
 </g>
 <g>
  <title>Layer 1</title>
  <g id="svg_8">
   <g transform="matrix(4.821567135129175,0,0,4.821567135129175,115.16728807216072,-319.1085135098813) " id="svg_4">
    <path id="svg_5" d="m26.166976,75.114463c-11.807,0.1 -42.675,-1.464 -45.445,17.135c-1.105,7.434 -4.426,43.897 4.616,54.094c1.49,1.679 8.09,2.034 9.033,0c0.652,-1.41 -3.62,-16.701 0,-20.285c1.34,-1.33 6.393,-1.462 7.583,0c0,7.272 -1.71,29.111 0,30.802c2.145,2.124 10.726,2.662 12.132,0c0.97,-1.84 0.001,-18.702 0.001,-23.528c6.54,5.437 41.92,11.988 50.041,2.494c0,4.643 -1.929,19.758 0,21.669c2.146,2.122 12.132,3.004 12.132,0c0.001,-2.096 2.949,-50.164 2.949,-50.164s-0.621,-32.655 -53.042,-32.217zm-32.659,31.847c-1.225,0 -2.217,-0.98 -2.217,-2.197c0,-1.214 0.992,-2.195 2.217,-2.195c1.224,0 2.217,0.981 2.217,2.195c0,1.216 -0.993,2.197 -2.217,2.197zm13.817,14.484c0,-1.371 0,0 0,-2.562c18.474,0.01 18.474,0.01 18.474,-39.36c0,0 0,0 3.325,0c0,41.959 -0.002,41.922 -21.799,41.922z"/>
   </g>
  </g>
 </g>
</svg>